{"title":"50.Shades.of.Black.2016.CAM.XviD-BombSquad","uid":13490081,"size":1393150701,"categoryP":"video","categoryS":"movies","magnet":"?xt=urn:btih:189df7a53fcbc33034b36a67ef2dc65edc40cef7&amp;dn=50.Shades.of.Black.2016.CAM.XviD-BombSquad&amp;tr=udp%3A%2F%2Ftracker.leechers-paradise.org%3A6969&amp;tr=udp%3A%2F%2Fzer0day.ch%3A1337&amp;tr=udp%3A%2F%2Fopen.demonii.com%3A1337&amp;tr=udp%3A%2F%2Ftracker.coppersurfer.tk%3A6969&amp;tr=udp%3A%2F%2Fexodus.desync.com%3A6969","seeders":33,"leechers":8,"uploader":"SaM","files":4,"time":1455115846,"description":"http://extraimago.com/image/AFe\r\n\r\n\r\n50.Shades.of.Black.2016.CAM.XviD-BombSquad\r\n\r\nSource - COX\r\n \nhttp://www.imdb.com/title/tt4667094/\r\n\r\nAn inexperienced college student meets a wealthy businessman whose sexual practices put a strain on their relationship.\r\n\r\nGeneral\r\nComplete name               : 50.Shades.of.Black.2016.CAM.XviD-BombSquad.avi\r\nFormat                      : AVI\r\nFormat/Info                 : Audio Video Interleave\r\nFile size                   : 1.27 GiB\r\nDuration                    : 1h 24mn\r\nOverall bit rate            : 2 144 Kbps\r\n\r\nVideo\r\nID                          : 0\r\nFormat                      : MPEG-4 Visual\r\nFormat profile              : Advanced   \r\nFormat settings, BVOP       : 2\r\nFormat settings, QPel       : No\r\nFormat settings, GMC        : No warppoints\r\nFormat settings, Matrix     : Default (H.263)\r\nMuxing mode                 : Packed bitstream\r\nCodec ID                    : XVID\r\nCodec ID/Hint               : XviD\r\nDuration                    : 1h 24mn\r\nBit rate                    : 1 946 Kbps\r\nWidth                       : 640 pixels\r\nHeight                      : 288 pixels\r\nDisplay aspect ratio        : 2.222\r\nFrame rate                  : 23.976 (24000/1001) fps\r\nColor space                 : YUV\r\nChroma subsampling          : 4:2:0\r\nBit depth                   : 8 bits\r\nScan type                   : Progressive\r\nCompression mode            : Lossy\r\nBits/(Pixel*Frame)          : 0.440\r\nStream size                 : 1.15 GiB (91%)\r\nWriting library             : XviD 64\r\n\r\nAudio\r\nID                          : 1\r\nFormat                      : MPEG Audio\r\nFormat version              : Version 1\r\nFormat profile              : Layer 3\r\nMode                        : Joint stereo\r\nMode extension              : MS Stereo\r\nCodec ID                    : 55\r\nCodec ID/Hint               : MP3\r\nDuration                    : 1h 24mn\r\nBit rate mode               : Constant\r\nBit rate                    : 192 Kbps\r\nChannel(s)                  : 2 channels\r\nSampling rate               : 44.1 KHz\r\nCompression mode            : Lossy\r\nStream size                 : 116 MiB (9%)\r\nAlignment                   : Aligned on interleaves\r\nInterleave, duration        : 167 ms (4.00 video frames)\r\nInterleave, preload duratio : 208 ms\r\nWriting library             : LAME3.99r\r\nEncoding settings           : -m j -V 4 -q 2 -lowpass 18.6 -b 192\r\n \nhttp://extraimago.com/image/AFF \nhttp://extraimago.com/image/AFH \nhttp://extraimago.com/image/AFk \nhttp://extraimago.com/image/AFo \nhttp://extraimago.com/image/AFt","torrent":{"xt":"urn:btih:189df7a53fcbc33034b36a67ef2dc65edc40cef7","amp;dn":"50.Shades.of.Black.2016.CAM.XviD-BombSquad","amp;tr":["udp%3A%2F%2Ftracker.leechers-paradise.org%3A6969","udp%3A%2F%2Fzer0day.ch%3A1337","udp%3A%2F%2Fopen.demonii.com%3A1337","udp%3A%2F%2Ftracker.coppersurfer.tk%3A6969","udp%3A%2F%2Fexodus.desync.com%3A6969"],"infoHash":"189df7a53fcbc33034b36a67ef2dc65edc40cef7","infoHashBuffer":{"type":"Buffer","data":[24,157,247,165,63,203,195,48,52,179,106,103,239,45,198,94,220,64,206,247]},"announce":[],"urlList":[]}}